<svg xmlns="http://www.w3.org/2000/svg" xmlns:xlink="http://www.w3.org/1999/xlink" width="500" zoomAndPan="magnify" viewBox="0 0 375 225" height="300" preserveAspectRatio="xMidYMid meet" version="1.0"><defs><g/><clipPath id="3f63ae2cca"><path d="M 193.367188 35.527344 L 370.367188 35.527344 L 370.367188 178.777344 L 193.367188 178.777344 Z M 193.367188 35.527344 " clip-rule="nonzero"/></clipPath><clipPath id="7650fb58cc"><path d="M 4.472656 56.550781 L 220.472656 56.550781 L 220.472656 170.550781 L 4.472656 170.550781 Z M 4.472656 56.550781 " clip-rule="nonzero"/></clipPath></defs><g clip-path="url(#3f63ae2cca)"><path fill="#bc6682" d="M 251.65625 178.351562 C 230.699219 178.351562 211.015625 175.878906 193.917969 171.535156 C 205.6875 173.324219 218.269531 174.285156 231.355469 174.285156 C 296.933594 174.285156 350.097656 150.078125 350.097656 120.210938 C 350.097656 99.894531 325.484375 82.199219 289.09375 72.949219 C 336.332031 80.09375 370.398438 100.371094 370.398438 124.289062 C 370.398438 154.144531 317.234375 178.351562 251.65625 178.351562 Z M 253.859375 63.980469 L 253.859375 63.542969 C 280.039062 63.542969 281.9375 59.292969 281.9375 35.449219 L 282.375 35.449219 C 282.375 59.292969 284.285156 63.542969 310.46875 63.542969 L 310.46875 63.980469 C 284.285156 63.980469 282.375 68.214844 282.375 92.058594 L 281.9375 92.058594 C 281.9375 68.214844 280.039062 63.980469 253.859375 63.980469 " fill-opacity="1" fill-rule="evenodd"/></g><g clip-path="url(#7650fb58cc)"><path fill="#bc6682" d="M 42.859375 149.539062 L 51.207031 124.027344 L 29.453125 108.289062 L 56.304688 108.351562 L 64.539062 82.800781 L 72.78125 108.351562 L 220.101562 100.183594 L 78.644531 100.28125 L 64.539062 56.550781 L 50.441406 100.28125 L 4.488281 100.183594 L 41.726562 127.109375 L 27.425781 170.777344 L 64.539062 143.6875 L 180.902344 130.90625 L 64.539062 133.710938 Z M 42.859375 149.539062 " fill-opacity="1" fill-rule="nonzero"/></g><path stroke-linecap="butt" transform="matrix(0.885808, 0, 0, 0.885808, 255.734697, 66.374311)" fill="none" stroke-linejoin="miter" d="M 52.141272 62.642179 L 52.141272 63.537371 C 50.505232 61.641151 48.551684 60.379945 46.267401 59.758161 C 43.983117 59.118738 41.703244 59.101099 39.41896 59.696424 C 39.366043 59.696424 39.339584 59.758161 39.339584 59.877226 C 39.339584 59.983061 39.445419 60.035979 39.65709 60.035979 C 41.941374 59.811079 44.15951 60.212372 46.307089 61.248678 C 48.459078 62.284984 50.209774 63.771091 51.563587 65.706999 C 52.9174 67.629678 53.592101 69.896322 53.592101 72.493702 C 53.592101 74.725068 53.036465 76.780041 51.920782 78.667441 C 50.805099 80.537202 49.301352 82.027719 47.400723 83.143402 C 45.504503 84.259085 43.414251 84.814721 41.129968 84.814721 C 38.678112 84.814721 36.473205 84.192938 34.524067 82.944961 C 32.57493 81.696983 31.053544 80.065352 29.96432 78.050067 C 29.911402 77.944232 29.814386 77.931003 29.668863 78.010379 C 29.532158 78.089756 29.49247 78.182362 29.545388 78.288197 C 29.774698 79.324504 30.184811 80.290253 30.780136 81.194265 C 31.37987 82.080637 31.975195 82.909682 32.57493 83.681399 C 30.833053 84.051824 28.822178 84.237036 26.542305 84.237036 C 23.120289 84.237036 19.879076 83.681399 16.827485 82.565717 C 13.789124 81.450034 11.103548 79.906599 8.766346 77.931003 C 6.429145 75.937767 4.607892 73.644664 3.293768 71.042874 C 1.992873 68.427854 1.34022 65.627623 1.34022 62.642179 C 1.34022 58.885018 2.319199 55.463003 4.268337 52.371723 C 5.040054 53.725536 6.045491 55.013202 7.293469 56.23472 C 8.541446 57.451828 9.899668 58.6072 11.372546 59.696424 C 11.478382 59.749341 11.575398 59.709653 11.654774 59.577359 C 11.734151 59.445064 11.720921 59.352458 11.615086 59.29954 C 9.595391 57.557664 7.97699 55.471822 6.755471 53.028785 C 5.533953 50.572519 4.925399 48.010418 4.925399 45.34689 C 4.925399 41.761712 5.899968 38.516089 7.849105 35.610022 C 9.815882 32.703955 12.430901 30.397622 15.694163 28.686615 C 18.957425 26.971197 22.573473 26.115693 26.542305 26.115693 C 30.66989 26.115693 34.369724 26.971197 37.650625 28.686615 C 40.940346 30.397622 43.559775 32.703955 45.508913 35.610022 C 47.47569 38.516089 48.459078 41.761712 48.459078 45.34689 C 48.459078 46.220033 48.388521 47.150504 48.256227 48.129483 C 48.123932 49.099642 47.868163 50.100669 47.480099 51.136975 C 50.584608 54.241484 52.141272 58.078022 52.141272 62.642179 Z M 26.542305 41.841088 C 26.052815 41.841088 25.585375 42.04835 25.148804 42.458462 C 24.712232 42.868575 24.491741 43.402162 24.491741 44.050405 C 24.491741 44.703057 24.712232 45.258694 25.148804 45.721724 C 25.585375 46.189165 26.052815 46.418475 26.542305 46.418475 C 27.296383 46.418475 27.887298 46.189165 28.31505 45.721724 C 28.751621 45.258694 28.972112 44.703057 28.972112 44.050405 C 28.972112 43.402162 28.751621 42.868575 28.31505 42.458462 C 27.887298 42.04835 27.296383 41.841088 26.542305 41.841088 Z M 26.542305 41.841088 " stroke="#000000" stroke-width="6.624361" stroke-opacity="1" stroke-miterlimit="4"/><g fill="#bc6682" fill-opacity="1"><g transform="translate(256.994205, 140.782219)"><g><path d="M 44.921875 -18.921875 L 44.921875 -18.125 C 43.472656 -19.8125 41.738281 -20.929688 39.71875 -21.484375 C 37.695312 -22.035156 35.675781 -22.046875 33.65625 -21.515625 C 33.601562 -21.515625 33.578125 -21.46875 33.578125 -21.375 C 33.578125 -21.28125 33.675781 -21.234375 33.875 -21.234375 C 35.894531 -21.421875 37.851562 -21.054688 39.75 -20.140625 C 41.65625 -19.234375 43.207031 -17.925781 44.40625 -16.21875 C 45.613281 -14.507812 46.21875 -12.5 46.21875 -10.1875 C 46.21875 -8.207031 45.722656 -6.382812 44.734375 -4.71875 C 43.753906 -3.0625 42.421875 -1.738281 40.734375 -0.75 C 39.046875 0.226562 37.191406 0.71875 35.171875 0.71875 C 33.003906 0.71875 31.050781 0.164062 29.3125 -0.9375 C 27.582031 -2.039062 26.238281 -3.484375 25.28125 -5.265625 C 25.226562 -5.367188 25.140625 -5.382812 25.015625 -5.3125 C 24.898438 -5.238281 24.867188 -5.15625 24.921875 -5.0625 C 25.109375 -4.144531 25.46875 -3.285156 26 -2.484375 C 26.53125 -1.691406 27.0625 -0.957031 27.59375 -0.28125 C 26.050781 0.0507812 24.269531 0.21875 22.25 0.21875 C 19.207031 0.21875 16.335938 -0.273438 13.640625 -1.265625 C 10.953125 -2.253906 8.570312 -3.625 6.5 -5.375 C 4.425781 -7.132812 2.8125 -9.171875 1.65625 -11.484375 C 0.5 -13.796875 -0.078125 -16.273438 -0.078125 -18.921875 C -0.078125 -22.242188 0.789062 -25.273438 2.53125 -28.015625 C 3.195312 -26.816406 4.082031 -25.675781 5.1875 -24.59375 C 6.300781 -23.507812 7.507812 -22.484375 8.8125 -21.515625 C 8.90625 -21.472656 8.988281 -21.507812 9.0625 -21.625 C 9.132812 -21.75 9.125 -21.832031 9.03125 -21.875 C 7.25 -23.414062 5.816406 -25.269531 4.734375 -27.4375 C 3.648438 -29.601562 3.109375 -31.867188 3.109375 -34.234375 C 3.109375 -37.410156 3.972656 -40.285156 5.703125 -42.859375 C 7.441406 -45.429688 9.753906 -47.476562 12.640625 -49 C 15.523438 -50.519531 18.726562 -51.28125 22.25 -51.28125 C 25.90625 -51.28125 29.1875 -50.519531 32.09375 -49 C 35.007812 -47.476562 37.332031 -45.429688 39.0625 -42.859375 C 40.800781 -40.285156 41.671875 -37.410156 41.671875 -34.234375 C 41.671875 -33.460938 41.609375 -32.640625 41.484375 -31.765625 C 41.367188 -30.898438 41.140625 -30.015625 40.796875 -29.109375 C 43.546875 -26.359375 44.921875 -22.960938 44.921875 -18.921875 Z M 22.25 -37.34375 C 21.8125 -37.34375 21.398438 -37.160156 21.015625 -36.796875 C 20.628906 -36.429688 20.4375 -35.960938 20.4375 -35.390625 C 20.4375 -34.804688 20.628906 -34.3125 21.015625 -33.90625 C 21.398438 -33.5 21.8125 -33.296875 22.25 -33.296875 C 22.914062 -33.296875 23.441406 -33.5 23.828125 -33.90625 C 24.210938 -34.3125 24.40625 -34.804688 24.40625 -35.390625 C 24.40625 -35.960938 24.210938 -36.429688 23.828125 -36.796875 C 23.441406 -37.160156 22.914062 -37.34375 22.25 -37.34375 Z M 22.25 -37.34375 "/></g></g></g><path stroke-linecap="butt" transform="matrix(0.885808, 0, 0, 0.885808, 191.053103, 68.672345)" fill="none" stroke-linejoin="miter" d="M 0.00178849 39.233581 C 0.00178849 36.790544 0.557425 34.581228 1.673108 32.605631 C 2.788791 30.616805 4.332225 29.038092 6.307822 27.869491 C 8.301058 26.700891 10.567702 26.118795 13.116574 26.118795 L 34.415973 26.118795 C 36.964846 26.118795 39.187392 26.740579 41.083611 27.988556 C 42.993061 29.236534 44.474758 30.854935 45.524294 32.843761 C 46.582649 34.823767 47.116236 36.927248 47.116236 39.154204 C 47.116236 41.438488 46.56942 43.533149 45.484605 45.442598 C 44.408611 47.343228 42.873996 48.860204 40.88517 50.002345 C 38.905164 51.144487 36.532684 51.766271 33.758911 51.872106 C 33.481093 51.872106 33.339979 52.02645 33.339979 52.330727 C 33.339979 52.621775 33.481093 52.824626 33.758911 52.930462 C 35.985867 53.20828 38.155495 53.062756 40.267796 52.48948 C 42.388916 51.920614 44.267497 50.791702 45.899128 49.107153 C 46.710534 50.897538 47.116236 52.802577 47.116236 54.817862 C 47.116236 58.614711 45.960865 61.626614 43.650123 63.85798 C 41.34379 66.084935 38.318658 67.421109 34.574727 67.857681 C 34.296908 67.857681 34.155794 68.025253 34.155794 68.355989 C 34.155794 68.673496 34.296908 68.832249 34.574727 68.832249 C 36.682618 69.05715 38.74641 68.898397 40.766105 68.355989 C 42.78139 67.809173 44.545315 66.636162 46.057881 64.832548 C 46.498863 65.546938 46.807549 66.345114 46.997171 67.218258 C 47.195613 68.082581 47.292629 69.383476 47.292629 71.120943 C 47.292629 72.36892 47.050089 73.740372 46.55619 75.239708 C 46.066701 76.730225 45.290574 78.141366 44.227809 79.481949 C 43.165043 80.809303 41.83328 81.898527 40.228108 82.745211 C 38.636165 83.583076 36.695847 84.002008 34.415973 84.002008 L 12.957821 84.002008 C 10.567702 84.002008 8.380434 83.415503 6.391608 82.246902 C 4.411602 81.082711 2.854938 79.521637 1.712796 77.5725 C 0.570654 75.605723 0.00178849 73.458144 0.00178849 71.120943 Z M 0.00178849 39.233581 " stroke="#000000" stroke-width="6.624361" stroke-opacity="1" stroke-miterlimit="4"/><g fill="#bc6682" fill-opacity="1"><g transform="translate(191.053103, 143.080253)"><g><path d="M 0 -39.640625 C 0 -41.804688 0.492188 -43.769531 1.484375 -45.53125 C 2.472656 -47.289062 3.84375 -48.6875 5.59375 -49.71875 C 7.351562 -50.757812 9.363281 -51.28125 11.625 -51.28125 L 30.46875 -51.28125 C 32.738281 -51.28125 34.710938 -50.722656 36.390625 -49.609375 C 38.078125 -48.503906 39.390625 -47.070312 40.328125 -45.3125 C 41.273438 -43.5625 41.75 -41.695312 41.75 -39.71875 C 41.75 -37.695312 41.265625 -35.84375 40.296875 -34.15625 C 39.335938 -32.46875 37.976562 -31.117188 36.21875 -30.109375 C 34.457031 -29.097656 32.351562 -28.546875 29.90625 -28.453125 C 29.65625 -28.453125 29.53125 -28.316406 29.53125 -28.046875 C 29.53125 -27.785156 29.65625 -27.609375 29.90625 -27.515625 C 31.875 -27.273438 33.796875 -27.40625 35.671875 -27.90625 C 37.554688 -28.414062 39.21875 -29.414062 40.65625 -30.90625 C 41.382812 -29.320312 41.75 -27.640625 41.75 -25.859375 C 41.75 -22.484375 40.722656 -19.804688 38.671875 -17.828125 C 36.628906 -15.859375 33.945312 -14.679688 30.625 -14.296875 C 30.382812 -14.296875 30.265625 -14.148438 30.265625 -13.859375 C 30.265625 -13.578125 30.382812 -13.4375 30.625 -13.4375 C 32.5 -13.238281 34.328125 -13.378906 36.109375 -13.859375 C 37.890625 -14.347656 39.453125 -15.382812 40.796875 -16.96875 C 41.179688 -16.34375 41.457031 -15.644531 41.625 -14.875 C 41.800781 -14.101562 41.890625 -12.945312 41.890625 -11.40625 C 41.890625 -10.300781 41.671875 -9.085938 41.234375 -7.765625 C 40.804688 -6.441406 40.117188 -5.1875 39.171875 -4 C 38.234375 -2.820312 37.054688 -1.859375 35.640625 -1.109375 C 34.222656 -0.367188 32.5 0 30.46875 0 L 11.484375 0 C 9.367188 0 7.429688 -0.515625 5.671875 -1.546875 C 3.910156 -2.585938 2.523438 -3.972656 1.515625 -5.703125 C 0.503906 -7.441406 0 -9.34375 0 -11.40625 Z M 0 -39.640625 "/></g></g></g><path stroke-linecap="butt" transform="matrix(0.885808, 0, 0, 0.885808, 161.124617, 69.609185)" fill="none" stroke-linejoin="miter" d="M 25.317172 83.998343 C 22.927053 83.998343 20.753015 83.403018 18.786238 82.207959 C 16.8371 81.012899 15.289256 79.429776 14.147114 77.44977 C 13.009382 75.460944 12.436106 73.295726 12.436106 70.962934 L 12.436106 38.916819 C 12.436106 36.5267 13.009382 34.370302 14.147114 32.447623 C 15.289256 30.507305 16.8371 28.96828 18.786238 27.830548 C 20.753015 26.688406 22.927053 26.115131 25.317172 26.115131 C 27.821946 26.115131 30.053311 26.688406 32.002449 27.830548 C 33.955996 28.96828 35.512661 30.507305 36.681261 32.447623 C 37.863091 34.370302 38.454006 36.5267 38.454006 38.916819 L 38.454006 70.962934 C 38.454006 73.295726 37.863091 75.460944 36.681261 77.44977 C 35.512661 79.429776 33.955996 81.012899 32.002449 82.207959 C 30.053311 83.403018 27.821946 83.998343 25.317172 83.998343 Z M 25.317172 83.998343 " stroke="#000000" stroke-width="6.624361" stroke-opacity="1" stroke-miterlimit="4"/><g fill="#bc6682" fill-opacity="1"><g transform="translate(172.14186, 144.017093)"><g><path d="M 11.40625 0 C 9.289062 0 7.363281 -0.523438 5.625 -1.578125 C 3.894531 -2.640625 2.523438 -4.050781 1.515625 -5.8125 C 0.503906 -7.570312 0 -9.488281 0 -11.5625 L 0 -39.9375 C 0 -42.050781 0.503906 -43.960938 1.515625 -45.671875 C 2.523438 -47.378906 3.894531 -48.738281 5.625 -49.75 C 7.363281 -50.769531 9.289062 -51.28125 11.40625 -51.28125 C 13.625 -51.28125 15.597656 -50.769531 17.328125 -49.75 C 19.066406 -48.738281 20.453125 -47.378906 21.484375 -45.671875 C 22.515625 -43.960938 23.03125 -42.050781 23.03125 -39.9375 L 23.03125 -11.5625 C 23.03125 -9.488281 22.515625 -7.570312 21.484375 -5.8125 C 20.453125 -4.050781 19.066406 -2.640625 17.328125 -1.578125 C 15.597656 -0.523438 13.625 0 11.40625 0 Z M 11.40625 0 "/></g></g></g><path stroke-linecap="butt" transform="matrix(0.885808, 0, 0, 0.885808, 130.206191, 69.609185)" fill="none" stroke-linejoin="miter" d="M 28.545671 83.998343 C 26.036487 83.998343 23.774253 83.416248 21.758968 82.247647 C 19.752503 81.079047 18.182609 79.509153 17.040468 77.529147 C 15.898326 75.540321 15.32946 73.291316 15.32946 70.782132 L 15.32946 39.075573 C 15.32946 36.685454 15.911555 34.515825 17.080156 32.566688 C 18.248757 30.599911 19.805421 29.034427 21.758968 27.870236 C 23.721335 26.701636 25.895373 26.115131 28.285492 26.115131 C 30.741758 26.115131 32.955485 26.701636 34.935491 27.870236 C 36.924317 29.034427 38.50303 30.599911 39.671631 32.566688 C 40.840231 34.515825 41.395868 36.685454 41.34295 39.075573 L 41.166558 57.905476 L 44.032936 57.905476 C 46.855217 57.905476 49.205648 58.549309 51.075409 59.836975 C 52.949579 61.111411 54.36072 62.743042 55.317649 64.731868 C 56.270169 66.707464 56.750839 68.784487 56.750839 70.962934 C 56.750839 73.123743 56.270169 75.200765 55.317649 77.194001 C 54.36072 79.169597 52.949579 80.801228 51.075409 82.088894 C 49.205648 83.36333 46.855217 83.998343 44.032936 83.998343 Z M 28.545671 83.998343 " stroke="#000000" stroke-width="6.624361" stroke-opacity="1" stroke-miterlimit="4"/><g fill="#bc6682" fill-opacity="1"><g transform="translate(143.783974, 144.017093)"><g><path d="M 11.703125 0 C 9.484375 0 7.484375 -0.515625 5.703125 -1.546875 C 3.921875 -2.585938 2.523438 -3.984375 1.515625 -5.734375 C 0.503906 -7.492188 0 -9.484375 0 -11.703125 L 0 -39.796875 C 0 -41.910156 0.515625 -43.832031 1.546875 -45.5625 C 2.585938 -47.300781 3.972656 -48.6875 5.703125 -49.71875 C 7.441406 -50.757812 9.367188 -51.28125 11.484375 -51.28125 C 13.648438 -51.28125 15.609375 -50.757812 17.359375 -49.71875 C 19.117188 -48.6875 20.515625 -47.300781 21.546875 -45.5625 C 22.585938 -43.832031 23.082031 -41.910156 23.03125 -39.796875 L 22.890625 -23.109375 L 25.421875 -23.109375 C 27.921875 -23.109375 30 -22.539062 31.65625 -21.40625 C 33.320312 -20.28125 34.578125 -18.835938 35.421875 -17.078125 C 36.265625 -15.316406 36.6875 -13.476562 36.6875 -11.5625 C 36.6875 -9.632812 36.265625 -7.789062 35.421875 -6.03125 C 34.578125 -4.269531 33.320312 -2.820312 31.65625 -1.6875 C 30 -0.5625 27.921875 0 25.421875 0 Z M 11.703125 0 "/></g></g></g><path stroke-linecap="butt" transform="matrix(0.885808, 0, 0, 0.885808, 105.902112, 69.609185)" fill="none" stroke-linejoin="miter" d="M 33.678007 29.938439 C 34.925984 28.637544 36.332715 27.676205 37.898199 27.054421 C 39.476912 26.428227 41.055625 26.115131 42.634339 26.115131 C 45.024457 26.115131 47.167627 26.701636 49.063847 27.870236 C 50.977706 29.034427 52.490272 30.599911 53.601545 32.566688 C 54.717228 34.515825 55.277274 36.685454 55.277274 39.075573 C 55.277274 40.707204 54.977407 42.325605 54.377672 43.930777 C 53.782347 45.535949 52.860696 46.991188 51.612719 48.292083 L 40.447071 59.695861 L 40.447071 71.042311 C 40.447071 73.43243 39.856156 75.606468 38.674326 77.568835 C 37.505725 79.522382 35.927012 81.079047 33.938186 82.247647 C 31.96259 83.416248 29.779732 83.998343 27.389613 83.998343 C 25.052412 83.998343 22.891603 83.416248 20.898368 82.247647 C 18.922771 81.079047 17.348468 79.522382 16.184277 77.568835 C 15.015676 75.606468 14.429171 73.43243 14.429171 71.042311 L 14.429171 59.695861 L 3.263523 48.292083 C 2.068464 46.991188 1.160042 45.535949 0.538258 43.930777 C -0.0879351 42.325605 -0.396622 40.707204 -0.396622 39.075573 C -0.396622 36.685454 0.154605 34.515825 1.252648 32.566688 C 2.368331 30.599911 3.876487 29.034427 5.772707 27.870236 C 7.682156 26.701636 9.807687 26.115131 12.140478 26.115131 C 13.719191 26.115131 15.284675 26.428227 16.841339 27.054421 C 18.393593 27.676205 19.765045 28.637544 20.960105 29.938439 L 27.389613 36.469373 Z M 33.678007 29.938439 " stroke="#000000" stroke-width="6.624361" stroke-opacity="1" stroke-miterlimit="4"/><g fill="#bc6682" fill-opacity="1"><g transform="translate(105.902112, 144.017093)"><g><path d="M 29.828125 -47.875 C 30.929688 -49.03125 32.179688 -49.882812 33.578125 -50.4375 C 34.972656 -51 36.367188 -51.28125 37.765625 -51.28125 C 39.890625 -51.28125 41.789062 -50.757812 43.46875 -49.71875 C 45.15625 -48.6875 46.492188 -47.300781 47.484375 -45.5625 C 48.472656 -43.832031 48.96875 -41.910156 48.96875 -39.796875 C 48.96875 -38.347656 48.703125 -36.910156 48.171875 -35.484375 C 47.640625 -34.066406 46.820312 -32.78125 45.71875 -31.625 L 35.828125 -21.515625 L 35.828125 -11.484375 C 35.828125 -9.367188 35.304688 -7.441406 34.265625 -5.703125 C 33.234375 -3.972656 31.835938 -2.585938 30.078125 -1.546875 C 28.316406 -0.515625 26.378906 0 24.265625 0 C 22.191406 0 20.273438 -0.515625 18.515625 -1.546875 C 16.765625 -2.585938 15.367188 -3.972656 14.328125 -5.703125 C 13.296875 -7.441406 12.78125 -9.367188 12.78125 -11.484375 L 12.78125 -21.515625 L 2.890625 -31.625 C 1.828125 -32.78125 1.019531 -34.066406 0.46875 -35.484375 C -0.0820312 -36.910156 -0.359375 -38.347656 -0.359375 -39.796875 C -0.359375 -41.910156 0.128906 -43.832031 1.109375 -45.5625 C 2.097656 -47.300781 3.4375 -48.6875 5.125 -49.71875 C 6.8125 -50.757812 8.691406 -51.28125 10.765625 -51.28125 C 12.160156 -51.28125 13.539062 -51 14.90625 -50.4375 C 16.28125 -49.882812 17.5 -49.03125 18.5625 -47.875 L 24.265625 -42.109375 Z M 29.828125 -47.875 "/></g></g></g><path stroke-linecap="butt" transform="matrix(0.885808, 0, 0, 0.885808, 65.084104, 71.322854)" fill="none" stroke-linejoin="miter" d="M 33.670996 28.682968 C 36.188999 26.26639 39.103886 25.058101 42.415656 25.058101 C 43.954681 25.058101 45.484886 25.366788 47.006272 25.979752 C 48.532067 26.597126 49.859421 27.501138 50.997153 28.682968 C 52.240721 29.882437 53.162372 31.22743 53.753287 32.726767 C 54.344202 34.212874 54.639659 35.756309 54.639659 37.357071 C 54.639659 38.957833 54.344202 40.505678 53.753287 42.005014 C 53.162372 43.504351 52.240721 44.871393 50.997153 46.106141 L 44.893971 52.226962 L 51.768871 59.101862 C 53.016848 60.288101 53.934089 61.641914 54.529414 63.1633 C 55.120329 64.689095 55.415786 66.22812 55.415786 67.775965 C 55.415786 69.323809 55.120329 70.849605 54.529414 72.348941 C 53.934089 73.835049 53.016848 75.171222 51.768871 76.353052 C 50.635548 77.548112 49.308195 78.456533 47.782399 79.073907 C 46.261013 79.691281 44.726398 79.999968 43.191783 79.999968 C 39.880013 79.999968 36.965126 78.782859 34.442713 76.353052 L 27.545765 69.628086 L 21.896794 75.501958 C 20.56503 76.952787 19.109791 78.06847 17.535488 78.849007 C 15.961185 79.616314 14.16639 79.999968 12.146696 79.999968 C 9.932969 79.999968 7.891226 79.457561 6.025875 78.377157 C 4.173753 77.292342 2.709695 75.823875 1.624881 73.971753 C 0.540067 72.106402 0.00206931 70.069068 0.00206931 67.850932 L 0.00206931 37.357071 C 0.00206931 35.037509 0.540067 32.951667 1.624881 31.103955 C 2.709695 29.238604 4.173753 27.765727 6.025875 26.680912 C 7.891226 25.596098 9.932969 25.058101 12.146696 25.058101 C 15.198287 25.058101 17.844175 25.962113 20.08436 27.778956 C 22.324545 29.57816 23.779784 31.871263 24.450076 34.653855 L 19.969705 41.078954 C 19.921197 41.281805 19.982934 41.475837 20.159327 41.665459 C 20.33572 41.841851 20.529751 41.819802 20.745832 41.608131 Z M 33.670996 28.682968 " stroke="#000000" stroke-width="6.28836" stroke-opacity="1" stroke-miterlimit="4"/><g fill="#bc6682" fill-opacity="1"><g transform="translate(65.084104, 142.187528)"><g><path d="M 29.8125 -45.453125 C 32.050781 -47.597656 34.632812 -48.671875 37.5625 -48.671875 C 38.9375 -48.671875 40.296875 -48.394531 41.640625 -47.84375 C 42.992188 -47.289062 44.171875 -46.492188 45.171875 -45.453125 C 46.265625 -44.398438 47.070312 -43.207031 47.59375 -41.875 C 48.125 -40.550781 48.390625 -39.179688 48.390625 -37.765625 C 48.390625 -36.347656 48.125 -34.976562 47.59375 -33.65625 C 47.070312 -32.332031 46.265625 -31.125 45.171875 -30.03125 L 39.75 -24.609375 L 45.859375 -18.5 C 46.953125 -17.457031 47.757812 -16.257812 48.28125 -14.90625 C 48.8125 -13.5625 49.078125 -12.203125 49.078125 -10.828125 C 49.078125 -9.460938 48.8125 -8.113281 48.28125 -6.78125 C 47.757812 -5.457031 46.953125 -4.269531 45.859375 -3.21875 C 44.847656 -2.164062 43.671875 -1.363281 42.328125 -0.8125 C 40.984375 -0.269531 39.625 0 38.25 0 C 35.320312 0 32.738281 -1.070312 30.5 -3.21875 L 24.40625 -9.1875 L 19.40625 -3.96875 C 18.207031 -2.695312 16.910156 -1.71875 15.515625 -1.03125 C 14.128906 -0.34375 12.546875 0 10.765625 0 C 8.796875 0 6.988281 -0.476562 5.34375 -1.4375 C 3.695312 -2.394531 2.394531 -3.695312 1.4375 -5.34375 C 0.476562 -6.988281 0 -8.796875 0 -10.765625 L 0 -37.765625 C 0 -39.828125 0.476562 -41.679688 1.4375 -43.328125 C 2.394531 -44.972656 3.695312 -46.273438 5.34375 -47.234375 C 6.988281 -48.191406 8.796875 -48.671875 10.765625 -48.671875 C 13.460938 -48.671875 15.800781 -47.867188 17.78125 -46.265625 C 19.769531 -44.671875 21.0625 -42.640625 21.65625 -40.171875 L 17.6875 -34.484375 C 17.632812 -34.296875 17.6875 -34.117188 17.84375 -33.953125 C 18.007812 -33.796875 18.1875 -33.8125 18.375 -34 Z M 29.8125 -45.453125 "/></g></g></g><g fill="#bc6682" fill-opacity="1"><g transform="translate(67.462356, 178.471678)"><g><path d="M 15.8125 -5.390625 C 16.71875 -5.390625 17.597656 -5.523438 18.453125 -5.796875 C 19.304688 -6.066406 19.9375 -6.332031 20.34375 -6.59375 L 20.953125 -7 L 23.484375 -1.9375 C 23.398438 -1.875 23.28125 -1.785156 23.125 -1.671875 C 22.976562 -1.566406 22.632812 -1.375 22.09375 -1.09375 C 21.5625 -0.8125 20.988281 -0.5625 20.375 -0.34375 C 19.757812 -0.132812 18.957031 0.0507812 17.96875 0.21875 C 16.976562 0.382812 15.953125 0.46875 14.890625 0.46875 C 12.460938 0.46875 10.160156 -0.125 7.984375 -1.3125 C 5.804688 -2.507812 4.050781 -4.148438 2.71875 -6.234375 C 1.394531 -8.328125 0.734375 -10.59375 0.734375 -13.03125 C 0.734375 -14.863281 1.125 -16.625 1.90625 -18.3125 C 2.6875 -20 3.722656 -21.445312 5.015625 -22.65625 C 6.316406 -23.863281 7.832031 -24.828125 9.5625 -25.546875 C 11.300781 -26.265625 13.078125 -26.625 14.890625 -26.625 C 16.578125 -26.625 18.132812 -26.421875 19.5625 -26.015625 C 20.988281 -25.609375 22 -25.207031 22.59375 -24.8125 L 23.484375 -24.203125 L 20.953125 -19.140625 C 20.796875 -19.265625 20.570312 -19.414062 20.28125 -19.59375 C 19.988281 -19.78125 19.394531 -20.019531 18.5 -20.3125 C 17.613281 -20.601562 16.71875 -20.75 15.8125 -20.75 C 14.375 -20.75 13.082031 -20.515625 11.9375 -20.046875 C 10.800781 -19.585938 9.898438 -18.976562 9.234375 -18.21875 C 8.566406 -17.457031 8.054688 -16.640625 7.703125 -15.765625 C 7.359375 -14.890625 7.1875 -14 7.1875 -13.09375 C 7.1875 -11.101562 7.929688 -9.320312 9.421875 -7.75 C 10.910156 -6.175781 13.039062 -5.390625 15.8125 -5.390625 Z M 15.8125 -5.390625 "/></g></g></g><g fill="#bc6682" fill-opacity="1"><g transform="translate(104.785036, 178.471678)"><g><path d="M 0.734375 -13.09375 C 0.734375 -16.875 2.019531 -20.070312 4.59375 -22.6875 C 7.164062 -25.3125 10.269531 -26.625 13.90625 -26.625 C 17.5625 -26.625 20.664062 -25.316406 23.21875 -22.703125 C 25.78125 -20.097656 27.0625 -16.894531 27.0625 -13.09375 C 27.0625 -9.257812 25.800781 -6.039062 23.28125 -3.4375 C 20.769531 -0.832031 17.644531 0.46875 13.90625 0.46875 C 10.082031 0.46875 6.929688 -0.820312 4.453125 -3.40625 C 1.972656 -5.988281 0.734375 -9.21875 0.734375 -13.09375 Z M 7.15625 -13.09375 C 7.15625 -11.71875 7.363281 -10.460938 7.78125 -9.328125 C 8.207031 -8.203125 8.945312 -7.25 10 -6.46875 C 11.0625 -5.6875 12.363281 -5.296875 13.90625 -5.296875 C 16.125 -5.296875 17.796875 -6.054688 18.921875 -7.578125 C 20.054688 -9.097656 20.625 -10.9375 20.625 -13.09375 C 20.625 -15.21875 20.046875 -17.046875 18.890625 -18.578125 C 17.742188 -20.109375 16.082031 -20.875 13.90625 -20.875 C 11.75 -20.875 10.082031 -20.109375 8.90625 -18.578125 C 7.738281 -17.046875 7.15625 -15.21875 7.15625 -13.09375 Z M 7.15625 -13.09375 "/></g></g></g><g fill="#bc6682" fill-opacity="1"><g transform="translate(146.035782, 178.471678)"><g><path d="M 5.515625 -6.78125 C 6.523438 -6.78125 7.382812 -6.425781 8.09375 -5.71875 C 8.800781 -5.007812 9.15625 -4.148438 9.15625 -3.140625 C 9.15625 -2.140625 8.800781 -1.285156 8.09375 -0.578125 C 7.382812 0.117188 6.523438 0.46875 5.515625 0.46875 C 4.523438 0.46875 3.675781 0.117188 2.96875 -0.578125 C 2.257812 -1.285156 1.90625 -2.140625 1.90625 -3.140625 C 1.90625 -4.148438 2.257812 -5.007812 2.96875 -5.71875 C 3.675781 -6.425781 4.523438 -6.78125 5.515625 -6.78125 Z M 5.515625 -6.78125 "/></g></g></g></svg>